<svg width="24" height="24" viewBox="0 0 24 24" fill="none" xmlns="http://www.w3.org/2000/svg">
<path fill-rule="evenodd" clip-rule="evenodd" d="M21.4968 9.84289C22.0568 11.5339 22.0408 13.3599 22.0018 14.9309L21.9998 15.0249C21.9932 15.2901 21.8815 15.5418 21.6892 15.7247C21.497 15.9075 21.24 16.0065 20.9748 15.9999C20.7096 15.9933 20.4579 15.8815 20.275 15.6893C20.0922 15.4971 19.9932 15.2401 19.9998 14.9749L20.0028 14.8819C20.0418 13.2849 20.0338 11.7899 19.5978 10.4719C19.2677 9.47841 18.7459 8.55937 18.0618 7.76689C16.6724 6.16549 14.706 5.17877 12.5917 5.02214C10.4774 4.86551 8.38696 5.55169 6.7768 6.93089C5.98152 7.61159 5.32869 8.44283 4.85588 9.37678C4.38307 10.3107 4.09961 11.329 4.0218 12.3729C3.9698 13.0649 3.9818 13.4729 3.9998 14.0509C4.0108 14.4229 4.0248 14.8659 4.0248 15.4999C4.0248 15.7651 3.91945 16.0195 3.73191 16.207C3.54437 16.3945 3.29002 16.4999 3.0248 16.4999C2.75959 16.4999 2.50523 16.3945 2.3177 16.207C2.13016 16.0195 2.0248 15.7651 2.0248 15.4999C2.0248 15.0089 2.0138 14.6059 2.0028 14.2349C1.9848 13.5669 1.9688 13.0059 2.0278 12.2249C2.12519 10.9187 2.47976 9.64466 3.07115 8.47597C3.66253 7.30728 4.47906 6.26698 5.4738 5.41489C7.48394 3.68728 10.0977 2.82837 12.7408 3.02689C15.3826 3.22349 17.8394 4.45728 19.5748 6.45889C20.4309 7.45014 21.0839 8.59991 21.4968 9.84289Z" fill="black"/>
<path fill-rule="evenodd" clip-rule="evenodd" d="M9.05483 15.6991L9.32883 18.8291C9.36165 19.2029 9.3205 19.5795 9.20775 19.9374C9.09499 20.2953 8.91282 20.6275 8.67166 20.915C8.4305 21.2025 8.13506 21.4397 7.80222 21.613C7.46938 21.7863 7.10565 21.8923 6.73183 21.925C5.63729 22.0207 4.54958 21.6777 3.70793 20.9715C2.86628 20.2652 2.33963 19.2536 2.24383 18.1591L1.99383 15.313C1.9595 14.9205 2.00284 14.5251 2.12137 14.1493C2.23989 13.7735 2.43128 13.4248 2.68461 13.123C2.93794 12.8212 3.24824 12.5722 3.59779 12.3904C3.94734 12.2085 4.32929 12.0973 4.72183 12.063C5.77857 11.9707 6.82871 12.3019 7.64129 12.9837C8.45387 13.6656 8.96233 14.6423 9.05483 15.6991ZM4.89583 14.0551C4.63169 14.0782 4.38756 14.2053 4.2171 14.4083C4.04664 14.6114 3.96381 14.8739 3.98683 15.138L4.23683 17.9851C4.28639 18.5509 4.5586 19.074 4.99363 19.4392C5.42865 19.8045 5.99091 19.9821 6.55683 19.9331C6.66908 19.9234 6.77832 19.8916 6.87829 19.8397C6.97827 19.7877 7.06702 19.7166 7.13946 19.6303C7.21191 19.544 7.26663 19.4443 7.3005 19.3368C7.33437 19.2294 7.34671 19.1163 7.33683 19.004L7.06283 15.874C7.04005 15.6123 6.96592 15.3576 6.84468 15.1245C6.72343 14.8914 6.55745 14.6845 6.35621 14.5156C6.15497 14.3466 5.92241 14.219 5.67184 14.14C5.42126 14.061 5.15757 14.0321 4.89583 14.0551ZM21.7548 18.3011L22.0288 15.171C22.0616 14.7972 22.0205 14.4206 21.9077 14.0627C21.795 13.7048 21.6128 13.3726 21.3717 13.0851C21.1305 12.7976 20.8351 12.5604 20.5022 12.3871C20.1694 12.2138 19.8057 12.1078 19.4318 12.075C18.3373 11.9794 17.2496 12.3224 16.4079 13.0286C15.5663 13.7349 15.0396 14.7465 14.9438 15.841L14.6938 18.6871C14.6595 19.0796 14.7028 19.475 14.8214 19.8508C14.9399 20.2266 15.1313 20.5753 15.3846 20.8771C15.6379 21.1789 15.9482 21.4279 16.2978 21.6097C16.6473 21.7916 17.0293 21.9028 17.4218 21.937C18.4786 22.0294 19.5287 21.6982 20.3413 21.0164C21.1539 20.3345 21.6623 19.3578 21.7548 18.3011ZM17.5958 19.945C17.3317 19.9219 17.0876 19.7948 16.9171 19.5918C16.7466 19.3887 16.6638 19.1262 16.6868 18.862L16.9368 16.015C16.9864 15.4492 17.2586 14.9261 17.6936 14.5609C18.1287 14.1956 18.6909 14.018 19.2568 14.0671C19.4832 14.0874 19.6924 14.1965 19.8385 14.3706C19.9847 14.5447 20.056 14.7696 20.0368 14.9961L19.7628 18.126C19.7401 18.3878 19.6659 18.6425 19.5447 18.8756C19.4234 19.1087 19.2574 19.3156 19.0562 19.4845C18.855 19.6535 18.6224 19.7811 18.3718 19.8601C18.1213 19.9391 17.8576 19.968 17.5958 19.945Z" fill="black"/>
</svg>
